<?xml version="1.0" standalone="no"?>
<!DOCTYPE svg PUBLIC "-//W3C//DTD SVG 1.0//EN" "http://www.w3.org/TR/2001/REC-SVG-20010904/DTD/svg10.dtd">
<svg xmlns="http://www.w3.org/2000/svg" xmlns:xlink="http://www.w3.org/1999/xlink" id="body_1" width="1024" height="768">

<g transform="matrix(0.08 0 0 0.08
 5 -0)">
	<g>
		<g>
            <path d="M453.7 20.4C 453.7 9.2 444.5 0 433.30002 0L433.30002 0L114.2 0C 70.4 0 35.7 34.7 35.7 77.5C 35.7 77.5 35.7 427 35.7 427.2C 35.7 461.90002 64.2 489.40002 98.9 489.40002L98.9 489.40002L432.3 489.40002C 440.5 489.40002 448.59998 484.30002 451.69998 476.10004C 454.8 467.90002 452.69998 458.80005 445.59998 453.70004C 427.49997 442.20004 426.39996 417.00003 442.49997 405.80005C 445.89996 402.40005 453.59998 395.40005 452.99997 385.40005C 453.5 383.8 453.7 20.4 453.7 20.4zM76.5 427.2C 76.5 415 86.7 405.80002 98.9 405.80002L98.9 405.80002L392.6 405.80002C 383.6 420.80002 385.5 438.40002 392.6 448.6L392.6 448.6L98.9 448.6C 86.7 448.6 76.5 439.5 76.5 427.2zM413 365L99 365C 91.1 365 83.6 366.5 76.6 369.2L76.6 369.2L76.6 77.5C 76.6 57.1 93.899994 40.8 114.3 40.8L114.3 40.8L413.09998 40.8L413.09998 365L413 365z" stroke="none" fill="#000000" fill-rule="nonzero" />
		</g>
	</g>
	<g>
	</g>
	<g>
	</g>
	<g>
	</g>
	<g>
	</g>
	<g>
	</g>
	<g>
	</g>
	<g>
	</g>
	<g>
	</g>
	<g>
	</g>
	<g>
	</g>
	<g>
	</g>
	<g>
	</g>
	<g>
	</g>
	<g>
	</g>
	<g>
	</g>
</g>
</svg>